PathFileType	4	(X/Y/Z)	./resultDataOpenSim/trcMotMarkerGrf/sub06/qtm-01-04.trc
DataRate	CameraRate	NumFrames	NumMarkers	Units	OrigDataRate	OrigDataStartFrame	OrigNumFrames
250.000000	250.000000	11	24	m	250.000000	451	515
Frame#	Time	L.Toe.Tip			R.Toe.Tip			L.Ankle.Lat			R.Ankle.Lat			L.Ankle.Med			R.Ankle.Med			L.Heel			R.Heel			L.Knee.Lat			R.Knee.Lat			L.Knee.Med			R.Knee.Med			L.Thigh.Upper			R.Thigh.Upper			L.ASIS			R.ASIS			V.Sacral			L.Acromium			R.Acromium			C7			L.Elbow			R.Elbow			L.Wrist.Lat			R.Wrist.Lat
		X1	Y1	Z1	X2	Y2	Z2	X3	Y3	Z3	X4	Y4	Z4	X5	Y5	Z5	X6	Y6	Z6	X7	Y7	Z7	X8	Y8	Z8	X9	Y9	Z9	X10	Y10	Z10	X11	Y11	Z11	X12	Y12	Z12	X13	Y13	Z13	X14	Y14	Z14	X15	Y15	Z15	X16	Y16	Z16	X17	Y17	Z17	X18	Y18	Z18	X19	Y19	Z19	X20	Y20	Z20	X21	Y21	Z21	X22	Y22	Z22	X23	Y23	Z23	X24	Y24	Z24

451	1.8	1.6773299	0.033180447	-0.0044107919	1.1315111	0.083561225	0.15453376	1.5543164	0.065658306	-0.035962625	1.1249269	0.22418793	0.17891881	1.5523383	0.08116325	0.050570825	1.1678006	0.2101918	0.1009558	1.4760919	0.039970304	0.0028643321	1.1020951	0.26457612	0.11194403	1.6334521	0.43265281	-0.050459042	1.4638495	0.40044925	0.2247072	1.6026513	0.43033113	0.066302727	1.4688978	0.37700136	0.090580835	1.5124424	0.81153294	-0.12273758	1.4577831	0.75378981	0.20130772	1.5675641	0.84985732	-0.062847434	1.5278287	0.82587152	0.18014813	1.3590315	0.91034633	0.040579224	1.4755096	1.3071617	-0.14889644	1.4652191	1.3167984	0.21482187	1.3919299	1.3524037	0.027786212	1.3755537	1.0072885	-0.18307641	1.4242908	0.99582202	0.28887449	1.4581156	0.78414138	-0.2423158	1.6340105	0.86487735	0.29014888
452	1.804	1.6773487	0.033171685	-0.0044196259	1.1480218	0.084104928	0.15568155	1.554309	0.065758051	-0.036118477	1.1382597	0.22471539	0.17887123	1.5525787	0.081341674	0.050540013	1.1814495	0.21114125	0.10112795	1.4761186	0.040148543	0.0028626603	1.1144558	0.26417536	0.11180487	1.6350856	0.43239462	-0.050311373	1.4759629	0.40272751	0.22505723	1.6036418	0.43041259	0.066358954	1.4812184	0.37906525	0.09093008	1.5179918	0.8125176	-0.12305033	1.4656654	0.7555639	0.20090521	1.5735361	0.85108336	-0.063297265	1.5337398	0.82805058	0.17999512	1.3652119	0.91203699	0.040121254	1.4819205	1.3091447	-0.14883816	1.4706304	1.3185015	0.21486977	1.3977832	1.3540473	0.027579264	1.3838525	1.0082228	-0.18343082	1.4281155	0.99777363	0.28805484	1.469824	0.78606242	-0.24172283	1.6355466	0.86372503	0.29100295
453	1.808	1.6773655	0.033160082	-0.0044199297	1.1647025	0.084488037	0.15683506	1.5543141	0.065905088	-0.036299513	1.1515155	0.22487036	0.17886453	1.5526809	0.081480717	0.050534036	1.1952265	0.21177859	0.10128973	1.4761413	0.040328664	0.0028323911	1.1271289	0.26354776	0.1115485	1.6366588	0.43221754	-0.050097744	1.4879222	0.40517455	0.22539934	1.6045158	0.43055263	0.06646413	1.4936501	0.381182	0.091254716	1.5235215	0.81348171	-0.12336305	1.4732275	0.75745815	0.20070928	1.5794359	0.85232634	-0.063762494	1.5402306	0.83020568	0.17997487	1.3713645	0.91375304	0.039693828	1.4883099	1.3112005	-0.14877319	1.4760376	1.3202353	0.2149203	1.4036384	1.3557046	0.027422612	1.3921484	1.0092056	-0.18378575	1.4315092	0.99979238	0.2873155	1.481574	0.7880977	-0.24109372	1.6369708	0.86265283	0.29189308
454	1.812	1.6773779	0.033149086	-0.0044133758	1.1815821	0.084728745	0.15799716	1.5543454	0.066067857	-0.036412492	1.1647855	0.2246619	0.17890708	1.5527345	0.081615637	0.050544266	1.2091237	0.21210168	0.10143327	1.4761437	0.04050923	0.0027713155	1.1400384	0.26267569	0.1112279	1.6381482	0.43210019	-0.049838263	1.4998105	0.40775997	0.22573158	1.6052842	0.43072623	0.066608318	1.5062781	0.38334087	0.091554834	1.5289771	0.81440788	-0.12365296	1.4805045	0.7594616	0.20069715	1.5852248	0.85359451	-0.064237006	1.5467536	0.83236497	0.17994877	1.3774093	0.91547357	0.039306694	1.4946687	1.313329	-0.1486961	1.4814069	1.3219965	0.2149767	1.409492	1.3573722	0.027308308	1.4004426	1.010238	-0.18413304	1.4346957	1.0018453	0.28664196	1.4933682	0.79024173	-0.24043095	1.6382735	0.86166114	0.29283134
455	1.816	1.6773866	0.03314187	-0.0044022493	1.198734	0.084861141	0.15915166	1.5543888	0.066219029	-0.036426005	1.1782845	0.22417036	0.17899182	1.552775	0.081765386	0.050564943	1.2231409	0.21214881	0.10158113	1.4761232	0.040700084	0.0026845398	1.1530714	0.26152292	0.11095908	1.63955	0.43202432	-0.049550786	1.5115838	0.41044195	0.22597482	1.6059369	0.43090698	0.066781352	1.5190171	0.385561	0.09182054	1.5342199	0.81530005	-0.12389141	1.4875057	0.76156884	0.20085115	1.5909204	0.85489044	-0.064719277	1.5530429	0.83454107	0.17983758	1.3833258	0.91718916	0.038961161	1.5009884	1.3155165	-0.14859393	1.4867595	1.3237743	0.21505073	1.4153355	1.3590593	0.027226508	1.4087403	1.01132	-0.18447808	1.4379357	1.0039242	0.28600963	1.5052096	0.79249222	-0.23973406	1.6394562	0.86074601	0.2938426
456	1.82	1.6773939	0.033140017	-0.004388065	1.2162082	0.084921326	0.16028672	1.5544183	0.066357736	-0.036385573	1.1921393	0.22347758	0.1791	1.5528064	0.081933455	0.050590412	1.2372766	0.21195553	0.10175743	1.4761011	0.040916498	0.0026244868	1.1661381	0.2600582	0.11082775	1.6408751	0.43197845	-0.049250915	1.5232016	0.41319781	0.22610707	1.6063908	0.43106628	0.066956958	1.5316879	0.38788416	0.092041305	1.5392	0.81617857	-0.12408068	1.4942414	0.76377278	0.20115717	1.596555	0.85621026	-0.065207425	1.5591462	0.83672991	0.17963975	1.3891569	0.9189097	0.03864994	1.5072694	1.3177306	-0.14845927	1.492171	1.3255602	0.21517241	1.4211645	1.3607668	0.027165723	1.4170437	1.0124494	-0.18483982	1.4413329	1.0060422	0.28539386	1.5170897	0.79484672	-0.23899575	1.6405392	0.85990157	0.29494791
457	1.824	1.6774038	0.033142882	-0.0043718713	1.2339371	0.084906301	0.16143328	1.5544315	0.066504095	-0.036340537	1.2063264	0.22263219	0.17920709	1.5528265	0.082115699	0.050616183	1.2515458	0.2115267	0.10200376	1.4761058	0.04116607	0.0026568247	1.1791934	0.25826349	0.11084406	1.6421359	0.43195695	-0.04895045	1.5347259	0.41602091	0.22618419	1.6065419	0.43118585	0.067102406	1.544148	0.39035025	0.092226356	1.5440735	0.81705724	-0.12425821	1.5007287	0.76606382	0.20160222	1.6021439	0.85754922	-0.065693298	1.565218	0.83892671	0.17938954	1.3949457	0.92063761	0.038371143	1.5135199	1.319934	-0.14829608	1.4977237	1.3273489	0.21536642	1.4269835	1.3624802	0.027117497	1.4253545	1.0136266	-0.18522947	1.444779	1.0082066	0.28477188	1.5289887	0.79729861	-0.23821022	1.6415451	0.85912503	0.29612636
458	1.828	1.6774217	0.033146906	-0.0043558155	1.2517632	0.084774715	0.16264658	1.5544499	0.066675149	-0.036297808	1.2207738	0.22165761	0.17929302	1.5528468	0.082310314	0.050642019	1.2659992	0.21084394	0.10239882	1.4761451	0.041443322	0.0027842069	1.1922624	0.25613355	0.1109227	1.6433334	0.43195847	-0.048657814	1.5462226	0.41889968	0.22623955	1.6064339	0.43128128	0.067208033	1.5563736	0.39296995	0.092387279	1.5490167	0.81793066	-0.12444281	1.5069892	0.76843109	0.20217312	1.6076783	0.85890484	-0.066162483	1.5713419	0.84113244	0.17911142	1.4006947	0.92234675	0.038153914	1.5197539	1.3221152	-0.148116	1.5034239	1.3291268	0.21560637	1.4328004	1.3641796	0.027084427	1.4336815	1.0148479	-0.18563681	1.4480904	1.0104055	0.28413316	1.5408885	0.79983661	-0.2373814	1.6424856	0.85841833	0.29731723
459	1.832	1.6774502	0.033147001	-0.0043424191	1.2695944	0.084499728	0.16394352	1.5544908	0.066870777	-0.036243321	1.2353709	0.22053657	0.17935115	1.5528906	0.082521786	0.050670195	1.2806723	0.20990395	0.10297817	1.4762053	0.041737626	0.0029526385	1.205466	0.25368272	0.11087215	1.6444547	0.43198256	-0.048383204	1.5576851	0.42181354	0.22625965	1.6063333	0.43140182	0.067299618	1.5684548	0.39571936	0.092516497	1.5540465	0.81878559	-0.12461339	1.5130457	0.77086348	0.20285634	1.6131507	0.86027787	-0.066606939	1.5775129	0.84334753	0.17880736	1.4063971	0.92400304	0.038049179	1.5259973	1.3242995	-0.14793213	1.5091671	1.3308742	0.21582194	1.4386202	1.365852	0.027076636	1.4420314	1.0160981	-0.18605056	1.4512459	1.0126089	0.28348739	1.5527829	0.80244921	-0.23651703	1.6433649	0.85778076	0.29847759
460	1.836	1.6774869	0.033139888	-0.0043326746	1.2874633	0.084090956	0.16529513	1.5545501	0.067079208	-0.036172862	1.2499641	0.21920976	0.17938737	1.5529771	0.082757214	0.050699612	1.2954811	0.20875739	0.10358838	1.4762696	0.042042737	0.0031211719	1.2189264	0.2509536	0.11053863	1.6454892	0.4320294	-0.048139589	1.5690781	0.42473682	0.22623923	1.6065306	0.4315855	0.06741593	1.5804183	0.39857306	0.092594508	1.559098	0.81961858	-0.12474593	1.5189208	0.77335007	0.2036381	1.6186004	0.86167091	-0.067041298	1.5836891	0.84556436	0.17846862	1.4121124	0.92559877	0.038065996	1.532276	1.3265169	-0.14775261	1.5147824	1.3325942	0.21596717	1.4444421	1.3674912	0.027103633	1.4503969	1.0173571	-0.18648009	1.4544245	1.0147818	0.28285988	1.5646738	0.80513163	-0.23561598	1.6441824	0.85720252	0.2996114
461	1.84	1.6775273	0.033126588	-0.0043262612	1.3054449	0.083574027	0.16667206	1.5546142	0.067291715	-0.036094045	1.2644736	0.21762341	0.17941604	1.5531064	0.083021037	0.050723121	1.3102322	0.20748555	0.10392832	1.4763302	0.042358653	0.0032841537	1.2326075	0.2479869	0.11003625	1.6464497	0.4321016	-0.047934116	1.5803876	0.42764542	0.22619338	1.6070852	0.43182215	0.067572927	1.5921848	0.40154183	0.092612513	1.5641408	0.82043888	-0.12483313	1.5246365	0.77588011	0.20450459	1.6241031	0.86308196	-0.067492051	1.589812	0.84777158	0.17808199	1.4179762	0.92714357	0.038135837	1.538584	1.3287583	-0.14757363	1.520061	1.3343275	0.21604765	1.4502591	1.3690909	0.027169812	1.4587623	1.0186156	-0.18694407	1.4578023	1.0169159	0.28228195	1.5765751	0.80788781	-0.23466723	1.6449336	0.85667203	0.30074279
